<?xml version="1.0" encoding="UTF-8"?>
<svg id="Capa_1" data-name="Capa 1" xmlns="http://www.w3.org/2000/svg" viewBox="0 0 42 42">
  <defs>
    <style>
      .cls-1 {
        fill: #333;
      }

      .cls-2 {
        fill: none;
      }
    </style>
  </defs>
  <path class="cls-1" d="M17.76,11c.13,0,.24,.11,.24,.24v6.53c0,.13-.11,.24-.24,.24h-6.53c-.13,0-.24-.11-.24-.24v-6.53c0-.13,.11-.24,.24-.24h6.53m0-2h-6.53c-1.24,0-2.24,1-2.24,2.24v6.53c0,1.24,1,2.24,2.24,2.24h6.53c1.24,0,2.24-1,2.24-2.24v-6.53c0-1.24-1-2.24-2.24-2.24h0Z"/>
  <path class="cls-1" d="M30.76,11c.13,0,.24,.11,.24,.24v6.53c0,.13-.11,.24-.24,.24h-6.53c-.13,0-.24-.11-.24-.24v-6.53c0-.13,.11-.24,.24-.24h6.53m0-2h-6.53c-1.24,0-2.24,1-2.24,2.24v6.53c0,1.24,1,2.24,2.24,2.24h6.53c1.24,0,2.24-1,2.24-2.24v-6.53c0-1.24-1-2.24-2.24-2.24h0Z"/>
  <path class="cls-1" d="M17.76,24c.13,0,.24,.11,.24,.24v6.53c0,.13-.11,.24-.24,.24h-6.53c-.13,0-.24-.11-.24-.24v-6.53c0-.13,.11-.24,.24-.24h6.53m0-2h-6.53c-1.24,0-2.24,1-2.24,2.24v6.53c0,1.24,1,2.24,2.24,2.24h6.53c1.24,0,2.24-1,2.24-2.24v-6.53c0-1.24-1-2.24-2.24-2.24h0Z"/>
  <path class="cls-1" d="M30.76,24c.13,0,.24,.11,.24,.24v6.53c0,.13-.11,.24-.24,.24h-6.53c-.13,0-.24-.11-.24-.24v-6.53c0-.13,.11-.24,.24-.24h6.53m0-2h-6.53c-1.24,0-2.24,1-2.24,2.24v6.53c0,1.24,1,2.24,2.24,2.24h6.53c1.24,0,2.24-1,2.24-2.24v-6.53c0-1.24-1-2.24-2.24-2.24h0Z"/>
  <rect class="cls-2" width="42" height="42"/>
</svg>